<svg version="1.1" viewBox="0.0 0.0 600.0 371.0" fill="none" stroke="none" stroke-linecap="square" stroke-miterlimit="10" width="600" height="371" xmlns:xlink="http://www.w3.org/1999/xlink" xmlns="http://www.w3.org/2000/svg"><path fill="#ffffff" d="M0 0L600.0 0L600.0 371.0L0 371.0L0 0Z" fill-rule="nonzero"/><path fill="#4285f4" d="M300.0 52.916668C378.05307 52.916668 443.0195 112.862625 449.28357 190.66394L300.0 202.68333Z" fill-rule="nonzero"/><path fill="#ea4335" d="M449.28357 190.66394C454.3976 254.18115 418.7599 313.97903 360.46042 339.70374L300.0 202.68333Z" fill-rule="nonzero"/><path fill="#fbbc04" d="M360.46042 339.70374C304.6606 364.32547 239.50372 352.65033 195.72482 310.1856C151.9459 267.72092 138.29091 202.95 161.20102 146.4259C184.11113 89.901825 239.00946 52.916668 300.0 52.916668L300.0 202.68333Z" fill-rule="nonzero"/><path fill="#1a1a1a" d="M19.64375 226.5333L19.64375 216.51767L24.096874 216.51767Q25.440624 216.51767 26.128124 216.7833Q26.83125 217.04892 27.2375 217.73642Q27.659374 218.42392 27.659374 219.25204Q27.659374 220.31454 26.971874 221.04892Q26.284374 221.76767 24.846874 221.9708Q25.3625 222.2208 25.64375 222.4708Q26.221874 223.00204 26.7375 223.79892L28.4875 226.5333L26.815624 226.5333L25.4875 224.45517Q24.909374 223.54892 24.534374 223.08017Q24.159374 222.5958 23.8625 222.4083Q23.565624 222.20517 23.253124 222.12704Q23.034374 222.08017 22.51875 222.08017L20.971874 222.08017L20.971874 226.5333L19.64375 226.5333ZM20.971874 220.93954L23.83125 220.93954Q24.7375 220.93954 25.253124 220.75204Q25.76875 220.56454 26.034374 220.1583Q26.3 219.73642 26.3 219.25204Q26.3 218.5333 25.784374 218.08017Q25.26875 217.61142 24.14375 217.61142L20.971874 217.61142L20.971874 220.93954ZM34.440624 224.18954L35.721874 224.3458Q35.409374 225.4708 34.596874 226.0958Q33.784374 226.70517 32.51875 226.70517Q30.925 226.70517 29.9875 225.7208Q29.065624 224.73642 29.065624 222.9708Q29.065624 221.12704 30.003124 220.12704Q30.95625 219.11142 32.45625 219.11142Q33.909374 219.11142 34.83125 220.11142Q35.753124 221.0958 35.753124 222.89267Q35.753124 223.00204 35.753124 223.2208L30.33125 223.2208Q30.409374 224.4083 31.003124 225.04892Q31.6125 225.68954 32.534374 225.68954Q33.20625 225.68954 33.675 225.33017Q34.159374 224.9708 34.440624 224.18954ZM30.409374 222.20517L34.45625 222.20517Q34.378124 221.2833 33.9875 220.83017Q33.409374 220.12704 32.471874 220.12704Q31.6125 220.12704 31.034374 220.68954Q30.471874 221.25204 30.409374 222.20517ZM36.9875 224.36142L38.190624 224.17392Q38.3 224.9083 38.76875 225.29892Q39.2375 225.68954 40.08125 225.68954Q40.925 225.68954 41.33125 225.3458Q41.753124 225.00204 41.753124 224.5333Q41.753124 224.11142 41.378124 223.87704Q41.128124 223.70517 40.128124 223.45517Q38.76875 223.11142 38.2375 222.86142Q37.721874 222.61142 37.45625 222.17392Q37.190624 221.73642 37.190624 221.20517Q37.190624 220.7208 37.409374 220.31454Q37.628124 219.89267 38.01875 219.61142Q38.3 219.4083 38.784374 219.26767Q39.284374 219.11142 39.8625 219.11142Q40.70625 219.11142 41.346874 219.36142Q42.003124 219.5958 42.315624 220.01767Q42.628124 220.43954 42.7375 221.14267L41.534374 221.31454Q41.45625 220.75204 41.05 220.43954Q40.659374 220.12704 39.940624 220.12704Q39.096874 220.12704 38.7375 220.4083Q38.378124 220.67392 38.378124 221.06454Q38.378124 221.29892 38.51875 221.48642Q38.675 221.68954 39.003124 221.81454Q39.175 221.87704 40.08125 222.12704Q41.39375 222.48642 41.909374 222.70517Q42.425 222.92392 42.70625 223.3458Q43.003124 223.76767 43.003124 224.39267Q43.003124 225.01767 42.64375 225.56454Q42.3 226.0958 41.6125 226.4083Q40.940624 226.70517 40.08125 226.70517Q38.675 226.70517 37.925 226.11142Q37.190624 225.51767 36.9875 224.36142ZM47.159374 225.43954L47.33125 226.51767Q46.815624 226.62704 46.409374 226.62704Q45.7375 226.62704 45.3625 226.42392Q45.003124 226.20517 44.846874 225.86142Q44.70625 225.51767 44.70625 224.4083L44.70625 220.23642L43.8 220.23642L43.8 219.26767L44.70625 219.26767L44.70625 217.4708L45.925 216.73642L45.925 219.26767L47.159374 219.26767L47.159374 220.23642L45.925 220.23642L45.925 224.4708Q45.925 225.00204 45.9875 225.1583Q46.05 225.29892 46.190624 225.39267Q46.346874 225.48642 46.6125 225.48642Q46.83125 225.48642 47.159374 225.43954ZM48.01875 222.9083Q48.01875 220.89267 49.14375 219.9083Q50.065624 219.11142 51.425 219.11142Q52.909374 219.11142 53.8625 220.0958Q54.815624 221.06454 54.815624 222.79892Q54.815624 224.20517 54.39375 225.01767Q53.971874 225.81454 53.159374 226.26767Q52.3625 226.70517 51.425 226.70517Q49.89375 226.70517 48.95625 225.7208Q48.01875 224.73642 48.01875 222.9083ZM49.284374 222.9083Q49.284374 224.29892 49.89375 225.00204Q50.503124 225.68954 51.425 225.68954Q52.33125 225.68954 52.940624 224.98642Q53.55 224.2833 53.55 222.86142Q53.55 221.51767 52.940624 220.83017Q52.33125 220.12704 51.425 220.12704Q50.503124 220.12704 49.89375 220.81454Q49.284374 221.50204 49.284374 222.9083ZM65.19063 226.5333L65.19063 225.61142Q64.4875 226.70517 63.159374 226.70517Q62.284374 226.70517 61.55 226.2208Q60.83125 225.73642 60.425 224.87704Q60.034374 224.01767 60.034374 222.9083Q60.034374 221.83017 60.39375 220.93954Q60.753124 220.04892 61.471874 219.58017Q62.20625 219.11142 63.096874 219.11142Q63.753124 219.11142 64.26875 219.39267Q64.78438 219.6583 65.09688 220.11142L65.09688 216.51767L66.33125 216.51767L66.33125 226.5333L65.19063 226.5333ZM61.3 222.9083Q61.3 224.29892 61.878124 225.00204Q62.471874 225.68954 63.26875 225.68954Q64.08125 225.68954 64.64375 225.0333Q65.20625 224.36142 65.20625 223.01767Q65.20625 221.51767 64.62813 220.83017Q64.05 220.12704 63.221874 220.12704Q62.39375 220.12704 61.846874 220.79892Q61.3 221.4708 61.3 222.9083ZM73.44063 224.18954L74.72188 224.3458Q74.40938 225.4708 73.59688 226.0958Q72.78438 226.70517 71.51875 226.70517Q69.925 226.70517 68.9875 225.7208Q68.06563 224.73642 68.06563 222.9708Q68.06563 221.12704 69.00313 220.12704Q69.95625 219.11142 71.45625 219.11142Q72.90938 219.11142 73.83125 220.11142Q74.75313 221.0958 74.75313 222.89267Q74.75313 223.00204 74.75313 223.2208L69.33125 223.2208Q69.40938 224.4083 70.00313 225.04892Q70.6125 225.68954 71.53438 225.68954Q72.20625 225.68954 72.675 225.33017Q73.15938 224.9708 73.44063 224.18954ZM69.40938 222.20517L73.45625 222.20517Q73.37813 221.2833 72.9875 220.83017Q72.40938 220.12704 71.47188 220.12704Q70.6125 220.12704 70.03438 220.68954Q69.47188 221.25204 69.40938 222.20517ZM76.44063 226.5333L76.44063 216.51767L77.675 216.51767L77.675 226.5333L76.44063 226.5333ZM88.44063 224.18954L89.72188 224.3458Q89.40938 225.4708 88.59688 226.0958Q87.78438 226.70517 86.51875 226.70517Q84.925 226.70517 83.9875 225.7208Q83.06563 224.73642 83.06563 222.9708Q83.06563 221.12704 84.00313 220.12704Q84.95625 219.11142 86.45625 219.11142Q87.90938 219.11142 88.83125 220.11142Q89.75313 221.0958 89.75313 222.89267Q89.75313 223.00204 89.75313 223.2208L84.33125 223.2208Q84.40938 224.4083 85.00313 225.04892Q85.6125 225.68954 86.53438 225.68954Q87.20625 225.68954 87.675 225.33017Q88.15938 224.9708 88.44063 224.18954ZM84.40938 222.20517L88.45625 222.20517Q88.37813 221.2833 87.9875 220.83017Q87.40938 220.12704 86.47188 220.12704Q85.6125 220.12704 85.03438 220.68954Q84.47188 221.25204 84.40938 222.20517ZM96.09688 229.31454L96.09688 225.76767Q95.81563 226.1583 95.3 226.43954Q94.78438 226.70517 94.20625 226.70517Q92.90938 226.70517 91.97188 225.67392Q91.05 224.62704 91.05 222.83017Q91.05 221.73642 91.425 220.87704Q91.8 220.00204 92.51875 219.56454Q93.2375 219.11142 94.1125 219.11142Q95.45625 219.11142 96.22188 220.23642L96.22188 219.26767L97.33125 219.26767L97.33125 229.31454L96.09688 229.31454ZM92.3 222.87704Q92.3 224.2833 92.89375 224.98642Q93.4875 225.68954 94.3 225.68954Q95.09688 225.68954 95.65938 225.01767Q96.22188 224.3458 96.22188 222.98642Q96.22188 221.54892 95.62813 220.81454Q95.03438 220.08017 94.22188 220.08017Q93.425 220.08017 92.8625 220.76767Q92.3 221.43954 92.3 222.87704ZM104.2375 226.5333L104.2375 225.4708Q103.37813 226.70517 101.925 226.70517Q101.28438 226.70517 100.72188 226.45517Q100.175 226.20517 99.89375 225.83017Q99.62813 225.45517 99.51875 224.92392Q99.44063 224.56454 99.44063 223.76767L99.44063 219.26767L100.675 219.26767L100.675 223.29892Q100.675 224.26767 100.75313 224.5958Q100.8625 225.08017 101.2375 225.36142Q101.6125 225.64267 102.175 225.64267Q102.72188 225.64267 103.20625 225.36142Q103.69063 225.06454 103.89375 224.58017Q104.09688 224.0958 104.09688 223.1583L104.09688 219.26767L105.33125 219.26767L105.33125 226.5333L104.2375 226.5333ZM107.4875 217.92392L107.4875 216.51767L108.70625 216.51767L108.70625 217.92392L107.4875 217.92392ZM107.4875 226.5333L107.4875 219.26767L108.70625 219.26767L108.70625 226.5333L107.4875 226.5333ZM110.47188 229.31454L110.47188 219.26767L111.59688 219.26767L111.59688 220.2208Q111.9875 219.6583 112.4875 219.39267Q112.9875 219.11142 113.70625 219.11142Q114.62813 219.11142 115.33125 219.5958Q116.05 220.06454 116.40938 220.93954Q116.76875 221.81454 116.76875 222.8458Q116.76875 223.95517 116.3625 224.86142Q115.97188 225.75204 115.20625 226.23642Q114.45625 226.70517 113.6125 226.70517Q113.00313 226.70517 112.50313 226.43954Q112.01875 226.17392 111.70625 225.7833L111.70625 229.31454L110.47188 229.31454ZM111.58125 222.93954Q111.58125 224.3458 112.14375 225.01767Q112.72188 225.68954 113.53438 225.68954Q114.34688 225.68954 114.925 225.00204Q115.51875 224.29892 115.51875 222.8458Q115.51875 221.45517 114.94063 220.76767Q114.37813 220.08017 113.58125 220.08017Q112.8 220.08017 112.19063 220.81454Q111.58125 221.54892 111.58125 222.93954ZM118.01875 222.9083Q118.01875 220.89267 119.14375 219.9083Q120.06563 219.11142 121.425 219.11142Q122.90938 219.11142 123.8625 220.0958Q124.81563 221.06454 124.81563 222.79892Q124.81563 224.20517 124.39375 225.01767Q123.97188 225.81454 123.15938 226.26767Q122.3625 226.70517 121.425 226.70517Q119.89375 226.70517 118.95625 225.7208Q118.01875 224.73642 118.01875 222.9083ZM119.28438 222.9083Q119.28438 224.29892 119.89375 225.00204Q120.50313 225.68954 121.425 225.68954Q122.33125 225.68954 122.94063 224.98642Q123.55 224.2833 123.55 222.86142Q123.55 221.51767 122.94063 220.83017Q122.33125 220.12704 121.425 220.12704Q120.50313 220.12704 119.89375 220.81454Q119.28438 221.50204 119.28438 222.9083Z" fill-rule="nonzero"/><path fill="#9e9e9e" d="M19.128124 243.9083L20.425 243.79892Q20.565624 244.73642 21.08125 245.2208Q21.6125 245.68954 22.346874 245.68954Q23.2375 245.68954 23.846874 245.01767Q24.471874 244.3458 24.471874 243.25204Q24.471874 242.18954 23.878124 241.58017Q23.284374 240.9708 22.33125 240.9708Q21.7375 240.9708 21.253124 241.25204Q20.784374 241.51767 20.503124 241.93954L19.346874 241.79892L20.315624 236.64267L25.3 236.64267L25.3 237.83017L21.3 237.83017L20.76875 240.51767Q21.675 239.89267 22.659374 239.89267Q23.971874 239.89267 24.8625 240.79892Q25.76875 241.70517 25.76875 243.14267Q25.76875 244.50204 24.9875 245.48642Q24.01875 246.70517 22.346874 246.70517Q20.9875 246.70517 20.1125 245.93954Q19.253124 245.17392 19.128124 243.9083ZM33.51875 238.9708L32.3 239.06454Q32.128124 238.33017 31.83125 238.00204Q31.33125 237.48642 30.596874 237.48642Q30.003124 237.48642 29.565624 237.81454Q28.9875 238.23642 28.64375 239.04892Q28.315624 239.86142 28.3 241.36142Q28.7375 240.68954 29.378124 240.36142Q30.034374 240.0333 30.7375 240.0333Q31.971874 240.0333 32.83125 240.93954Q33.690624 241.8458 33.690624 243.2833Q33.690624 244.2208 33.284374 245.0333Q32.878124 245.8458 32.159374 246.2833Q31.45625 246.70517 30.55 246.70517Q29.01875 246.70517 28.05 245.58017Q27.08125 244.43954 27.08125 241.8458Q27.08125 238.93954 28.14375 237.61142Q29.08125 236.4708 30.675 236.4708Q31.8625 236.4708 32.6125 237.14267Q33.3625 237.79892 33.51875 238.9708ZM28.4875 243.2833Q28.4875 243.92392 28.753124 244.50204Q29.034374 245.08017 29.51875 245.39267Q30.003124 245.68954 30.534374 245.68954Q31.315624 245.68954 31.878124 245.06454Q32.440624 244.43954 32.440624 243.36142Q32.440624 242.31454 31.878124 241.7208Q31.33125 241.11142 30.4875 241.11142Q29.659374 241.11142 29.065624 241.7208Q28.4875 242.31454 28.4875 243.2833ZM35.8 246.5333L35.8 245.12704L37.190624 245.12704L37.190624 246.5333Q37.190624 247.29892 36.909374 247.76767Q36.64375 248.25204 36.05 248.51767L35.70625 247.98642Q36.096874 247.81454 36.284374 247.48642Q36.471874 247.1583 36.4875 246.5333L35.8 246.5333ZM45.51875 238.9708L44.3 239.06454Q44.128124 238.33017 43.83125 238.00204Q43.33125 237.48642 42.596874 237.48642Q42.003124 237.48642 41.565624 237.81454Q40.9875 238.23642 40.64375 239.04892Q40.315624 239.86142 40.3 241.36142Q40.7375 240.68954 41.378124 240.36142Q42.034374 240.0333 42.7375 240.0333Q43.971874 240.0333 44.83125 240.93954Q45.690624 241.8458 45.690624 243.2833Q45.690624 244.2208 45.284374 245.0333Q44.878124 245.8458 44.159374 246.2833Q43.45625 246.70517 42.55 246.70517Q41.01875 246.70517 40.05 245.58017Q39.08125 244.43954 39.08125 241.8458Q39.08125 238.93954 40.14375 237.61142Q41.08125 236.4708 42.675 236.4708Q43.8625 236.4708 44.6125 237.14267Q45.3625 237.79892 45.51875 238.9708ZM40.4875 243.2833Q40.4875 243.92392 40.753124 244.50204Q41.034374 245.08017 41.51875 245.39267Q42.003124 245.68954 42.534374 245.68954Q43.315624 245.68954 43.878124 245.06454Q44.440624 244.43954 44.440624 243.36142Q44.440624 242.31454 43.878124 241.7208Q43.33125 241.11142 42.4875 241.11142Q41.659374 241.11142 41.065624 241.7208Q40.4875 242.31454 40.4875 243.2833ZM47.3625 238.92392Q47.3625 237.8458 47.89375 237.0958Q48.440624 236.3458 49.471874 236.3458Q50.409374 236.3458 51.01875 237.01767Q51.64375 237.68954 51.64375 238.98642Q51.64375 240.26767 51.01875 240.95517Q50.39375 241.64267 49.4875 241.64267Q48.58125 241.64267 47.971874 240.9708Q47.3625 240.2833 47.3625 238.92392ZM49.503124 237.18954Q49.05 237.18954 48.7375 237.5958Q48.440624 237.98642 48.440624 239.0333Q48.440624 240.00204 48.7375 240.39267Q49.05 240.7833 49.503124 240.7833Q49.971874 240.7833 50.26875 240.39267Q50.58125 240.00204 50.58125 238.93954Q50.58125 237.9708 50.26875 237.58017Q49.95625 237.18954 49.503124 237.18954ZM49.503124 246.9083L54.9875 236.3458L55.9875 236.3458L50.534374 246.9083L49.503124 246.9083ZM53.846874 244.17392Q53.846874 243.0958 54.378124 242.36142Q54.925 241.61142 55.95625 241.61142Q56.89375 241.61142 57.51875 242.2833Q58.14375 242.95517 58.14375 244.25204Q58.14375 245.5333 57.51875 246.2208Q56.89375 246.9083 55.95625 246.9083Q55.05 246.9083 54.440624 246.23642Q53.846874 245.54892 53.846874 244.17392ZM55.9875 242.45517Q55.51875 242.45517 55.221874 242.86142Q54.925 243.25204 54.925 244.29892Q54.925 245.26767 55.221874 245.6583Q55.534374 246.04892 55.9875 246.04892Q56.45625 246.04892 56.753124 245.6583Q57.065624 245.26767 57.065624 244.20517Q57.065624 243.23642 56.753124 242.8458Q56.45625 242.45517 55.9875 242.45517Z" fill-rule="nonzero"/><path stroke="#757575" stroke-width="1.0" stroke-linecap="butt" d="M18.55 232.0333L144.23334 232.0333L160.78181 232.0333" fill-rule="nonzero"/><path fill="#9e9e9e" d="M162.78181 232.0333C162.78181 230.92873 161.88638 230.0333 160.78181 230.0333C159.67725 230.0333 158.78181 230.92873 158.78181 232.0333C158.78181 233.13786 159.67725 234.0333 160.78181 234.0333C161.88638 234.0333 162.78181 233.13786 162.78181 232.0333" fill-rule="nonzero"/><path fill="#1a1a1a" d="M491.48126 92.61824L491.48126 82.602615L492.8094 82.602615L492.8094 91.43074L497.73126 91.43074L497.73126 92.61824L491.48126 92.61824ZM504.34064 90.27449L505.6219 90.43074Q505.3094 91.55574 504.4969 92.18074Q503.6844 92.790115 502.41876 92.790115Q500.825 92.790115 499.8875 91.80574Q498.96564 90.821365 498.96564 89.05574Q498.96564 87.21199 499.90314 86.21199Q500.85626 85.196365 502.35626 85.196365Q503.8094 85.196365 504.73126 86.196365Q505.65314 87.18074 505.65314 88.977615Q505.65314 89.08699 505.65314 89.30574L500.23126 89.30574Q500.3094 90.49324 500.90314 91.133865Q501.5125 91.77449 502.4344 91.77449Q503.10626 91.77449 503.575 91.415115Q504.0594 91.05574 504.34064 90.27449ZM500.3094 88.290115L504.35626 88.290115Q504.27814 87.36824 503.8875 86.915115Q503.3094 86.21199 502.3719 86.21199Q501.5125 86.21199 500.9344 86.77449Q500.3719 87.33699 500.3094 88.290115ZM508.5125 92.61824L507.3719 92.61824L507.3719 82.602615L508.59064 82.602615L508.59064 86.165115Q509.3719 85.196365 510.59064 85.196365Q511.2625 85.196365 511.85626 85.46199Q512.45 85.727615 512.84064 86.227615Q513.23126 86.71199 513.45 87.39949Q513.66876 88.08699 513.66876 88.883865Q513.66876 90.74324 512.73126 91.77449Q511.8094 92.790115 510.52814 92.790115Q509.2469 92.790115 508.5125 91.71199L508.5125 92.61824ZM508.4969 88.93074Q508.4969 90.24324 508.85626 90.821365Q509.4344 91.77449 510.41876 91.77449Q511.23126 91.77449 511.8094 91.071365Q512.40314 90.36824 512.40314 88.977615Q512.40314 87.55574 511.84064 86.883865Q511.27814 86.21199 510.48126 86.21199Q509.66876 86.21199 509.075 86.915115Q508.4969 87.602615 508.4969 88.93074ZM515.35626 92.61824L515.35626 85.352615L516.46564 85.352615L516.46564 86.46199Q516.8875 85.68074 517.2469 85.446365Q517.60626 85.196365 518.04376 85.196365Q518.66876 85.196365 519.3094 85.58699L518.8875 86.727615Q518.4344 86.46199 517.98126 86.46199Q517.575 86.46199 517.2469 86.71199Q516.9344 86.946365 516.79376 87.383865Q516.59064 88.040115 516.59064 88.821365L516.59064 92.61824L515.35626 92.61824ZM519.91876 88.99324Q519.91876 86.977615 521.04376 85.99324Q521.96564 85.196365 523.325 85.196365Q524.8094 85.196365 525.7625 86.18074Q526.71564 87.14949 526.71564 88.883865Q526.71564 90.290115 526.29376 91.102615Q525.8719 91.89949 525.0594 92.352615Q524.2625 92.790115 523.325 92.790115Q521.79376 92.790115 520.85626 91.80574Q519.91876 90.821365 519.91876 88.99324ZM521.1844 88.99324Q521.1844 90.383865 521.79376 91.08699Q522.40314 91.77449 523.325 91.77449Q524.23126 91.77449 524.84064 91.071365Q525.45 90.36824 525.45 88.946365Q525.45 87.602615 524.84064 86.915115Q524.23126 86.21199 523.325 86.21199Q522.40314 86.21199 521.79376 86.89949Q521.1844 87.58699 521.1844 88.99324ZM528.3719 92.61824L528.3719 85.352615L529.48126 85.352615L529.48126 86.383865Q530.27814 85.196365 531.79376 85.196365Q532.45 85.196365 532.9969 85.43074Q533.54376 85.665115 533.8094 86.05574Q534.09064 86.43074 534.2 86.96199Q534.27814 87.30574 534.27814 88.14949L534.27814 92.61824L533.04376 92.61824L533.04376 88.196365Q533.04376 87.446365 532.90314 87.08699Q532.7625 86.71199 532.3875 86.49324Q532.02814 86.258865 531.52814 86.258865Q530.7469 86.258865 530.16876 86.758865Q529.60626 87.258865 529.60626 88.64949L529.60626 92.61824L528.3719 92.61824ZM539.85626 89.77449L541.04376 89.602615Q541.09064 90.758865 541.46564 91.18074Q541.85626 91.602615 542.54376 91.602615Q543.04376 91.602615 543.40314 91.383865Q543.7625 91.14949 543.90314 90.758865Q544.04376 90.36824 544.04376 89.49324L544.04376 82.602615L545.35626 82.602615L545.35626 89.43074Q545.35626 90.68074 545.0594 91.383865Q544.7625 92.071365 544.09064 92.43074Q543.4344 92.790115 542.54376 92.790115Q541.23126 92.790115 540.52814 92.040115Q539.825 91.27449 539.85626 89.77449ZM552.10626 91.727615Q551.4344 92.30574 550.79376 92.55574Q550.16876 92.790115 549.4344 92.790115Q548.2469 92.790115 547.59064 92.21199Q546.95 91.61824 546.95 90.696365Q546.95 90.165115 547.1844 89.727615Q547.4344 89.290115 547.825 89.02449Q548.23126 88.758865 548.71564 88.61824Q549.075 88.52449 549.8094 88.43074Q551.3094 88.258865 552.0125 88.008865Q552.0125 87.758865 552.0125 87.696365Q552.0125 86.93074 551.66876 86.633865Q551.2 86.21199 550.2625 86.21199Q549.40314 86.21199 548.98126 86.52449Q548.575 86.821365 548.3719 87.58699L547.16876 87.43074Q547.325 86.64949 547.7 86.18074Q548.09064 85.71199 548.79376 85.46199Q549.5125 85.196365 550.45 85.196365Q551.3719 85.196365 551.95 85.415115Q552.52814 85.633865 552.79376 85.96199Q553.075 86.290115 553.1844 86.80574Q553.2469 87.11824 553.2469 87.93074L553.2469 89.571365Q553.2469 91.290115 553.325 91.74324Q553.40314 92.196365 553.6375 92.61824L552.35626 92.61824Q552.16876 92.227615 552.10626 91.727615ZM552.0125 88.977615Q551.34064 89.24324 549.9969 89.446365Q549.2469 89.55574 548.91876 89.696365Q548.60626 89.821365 548.4344 90.08699Q548.2625 90.352615 548.2625 90.665115Q548.2625 91.165115 548.6375 91.49324Q549.0125 91.821365 549.73126 91.821365Q550.45 91.821365 550.9969 91.508865Q551.54376 91.196365 551.8094 90.64949Q552.0125 90.24324 552.0125 89.43074L552.0125 88.977615ZM555.3719 92.61824L555.3719 85.352615L556.48126 85.352615L556.48126 86.383865Q556.8094 85.83699 557.3719 85.52449Q557.95 85.196365 558.66876 85.196365Q559.48126 85.196365 559.9969 85.540115Q560.5125 85.86824 560.73126 86.46199Q561.59064 85.196365 562.96564 85.196365Q564.04376 85.196365 564.6219 85.790115Q565.21564 86.383865 565.21564 87.633865L565.21564 92.61824L563.98126 92.61824L563.98126 88.040115Q563.98126 87.30574 563.85626 86.977615Q563.7469 86.64949 563.4344 86.46199Q563.1219 86.258865 562.7 86.258865Q561.9344 86.258865 561.41876 86.77449Q560.91876 87.27449 560.91876 88.39949L560.91876 92.61824L559.6844 92.61824L559.6844 87.89949Q559.6844 87.08699 559.3875 86.68074Q559.09064 86.258865 558.40314 86.258865Q557.8875 86.258865 557.4344 86.540115Q556.9969 86.80574 556.79376 87.33699Q556.60626 87.852615 556.60626 88.852615L556.60626 92.61824L555.3719 92.61824ZM572.34064 90.27449L573.6219 90.43074Q573.3094 91.55574 572.4969 92.18074Q571.6844 92.790115 570.41876 92.790115Q568.825 92.790115 567.8875 91.80574Q566.96564 90.821365 566.96564 89.05574Q566.96564 87.21199 567.90314 86.21199Q568.85626 85.196365 570.35626 85.196365Q571.8094 85.196365 572.73126 86.196365Q573.65314 87.18074 573.65314 88.977615Q573.65314 89.08699 573.65314 89.30574L568.23126 89.30574Q568.3094 90.49324 568.90314 91.133865Q569.5125 91.77449 570.4344 91.77449Q571.10626 91.77449 571.575 91.415115Q572.0594 91.05574 572.34064 90.27449ZM568.3094 88.290115L572.35626 88.290115Q572.27814 87.36824 571.8875 86.915115Q571.3094 86.21199 570.3719 86.21199Q569.5125 86.21199 568.9344 86.77449Q568.3719 87.33699 568.3094 88.290115ZM574.8875 90.446365L576.09064 90.258865Q576.2 90.99324 576.66876 91.383865Q577.1375 91.77449 577.98126 91.77449Q578.825 91.77449 579.23126 91.43074Q579.65314 91.08699 579.65314 90.61824Q579.65314 90.196365 579.27814 89.96199Q579.02814 89.790115 578.02814 89.540115Q576.66876 89.196365 576.1375 88.946365Q575.6219 88.696365 575.35626 88.258865Q575.09064 87.821365 575.09064 87.290115Q575.09064 86.80574 575.3094 86.39949Q575.52814 85.977615 575.91876 85.696365Q576.2 85.49324 576.6844 85.352615Q577.1844 85.196365 577.7625 85.196365Q578.60626 85.196365 579.2469 85.446365Q579.90314 85.68074 580.21564 86.102615Q580.52814 86.52449 580.6375 87.227615L579.4344 87.39949Q579.35626 86.83699 578.95 86.52449Q578.5594 86.21199 577.84064 86.21199Q576.9969 86.21199 576.6375 86.49324Q576.27814 86.758865 576.27814 87.14949Q576.27814 87.383865 576.41876 87.571365Q576.575 87.77449 576.90314 87.89949Q577.075 87.96199 577.98126 88.21199Q579.29376 88.571365 579.8094 88.790115Q580.325 89.008865 580.60626 89.43074Q580.90314 89.852615 580.90314 90.477615Q580.90314 91.102615 580.54376 91.64949Q580.2 92.18074 579.5125 92.49324Q578.84064 92.790115 577.98126 92.790115Q576.575 92.790115 575.825 92.196365Q575.09064 91.602615 574.8875 90.446365Z" fill-rule="nonzero"/><path fill="#9e9e9e" d="M548.4969 111.43074L548.4969 112.61824L541.8719 112.61824Q541.85626 112.18074 542.0125 111.758865Q542.27814 111.08699 542.825 110.43074Q543.3875 109.77449 544.4344 108.915115Q546.075 107.571365 546.6375 106.790115Q547.21564 106.008865 547.21564 105.30574Q547.21564 104.571365 546.6844 104.071365Q546.16876 103.571365 545.34064 103.571365Q544.45 103.571365 543.90314 104.102615Q543.3719 104.633865 543.3719 105.58699L542.10626 105.446365Q542.23126 104.040115 543.075 103.30574Q543.9344 102.55574 545.35626 102.55574Q546.8094 102.55574 547.6375 103.352615Q548.48126 104.14949 548.48126 105.33699Q548.48126 105.946365 548.23126 106.52449Q547.9969 107.102615 547.41876 107.74324Q546.85626 108.383865 545.52814 109.508865Q544.41876 110.43074 544.10626 110.77449Q543.79376 111.102615 543.59064 111.43074L548.4969 111.43074ZM550.04376 109.977615L551.2625 109.80574Q551.48126 110.852615 551.98126 111.321365Q552.4969 111.77449 553.23126 111.77449Q554.10626 111.77449 554.7 111.18074Q555.29376 110.571365 555.29376 109.68074Q555.29376 108.83699 554.73126 108.290115Q554.1844 107.74324 553.34064 107.74324Q552.98126 107.74324 552.46564 107.86824L552.60626 106.790115Q552.73126 106.80574 552.79376 106.80574Q553.59064 106.80574 554.21564 106.39949Q554.84064 105.99324 554.84064 105.133865Q554.84064 104.46199 554.3875 104.02449Q553.9344 103.571365 553.2 103.571365Q552.48126 103.571365 551.9969 104.02449Q551.52814 104.46199 551.3875 105.36824L550.16876 105.14949Q550.3875 103.915115 551.1844 103.24324Q551.98126 102.55574 553.16876 102.55574Q553.9969 102.55574 554.6844 102.915115Q555.3719 103.258865 555.73126 103.86824Q556.10626 104.477615 556.10626 105.165115Q556.10626 105.80574 555.7625 106.33699Q555.41876 106.86824 554.73126 107.196365Q555.6219 107.39949 556.10626 108.040115Q556.60626 108.68074 556.60626 109.665115Q556.60626 110.977615 555.6375 111.883865Q554.6844 112.790115 553.23126 112.790115Q551.90314 112.790115 551.02814 112.008865Q550.16876 111.227615 550.04376 109.977615ZM558.7 112.61824L558.7 111.21199L560.09064 111.21199L560.09064 112.61824Q560.09064 113.383865 559.8094 113.852615Q559.54376 114.33699 558.95 114.602615L558.60626 114.071365Q558.9969 113.89949 559.1844 113.571365Q559.3719 113.24324 559.3875 112.61824L558.7 112.61824ZM562.10626 103.915115L562.10626 102.727615L568.60626 102.727615L568.60626 103.68074Q567.6375 104.696365 566.7 106.383865Q565.7625 108.071365 565.2469 109.86824Q564.8875 111.11824 564.77814 112.61824L563.5125 112.61824Q563.52814 111.43074 563.96564 109.758865Q564.41876 108.08699 565.2469 106.540115Q566.09064 104.977615 567.02814 103.915115L562.10626 103.915115ZM570.2625 105.008865Q570.2625 103.93074 570.79376 103.18074Q571.34064 102.43074 572.3719 102.43074Q573.3094 102.43074 573.91876 103.102615Q574.54376 103.77449 574.54376 105.071365Q574.54376 106.352615 573.91876 107.040115Q573.29376 107.727615 572.3875 107.727615Q571.48126 107.727615 570.8719 107.05574Q570.2625 106.36824 570.2625 105.008865ZM572.40314 103.27449Q571.95 103.27449 571.6375 103.68074Q571.34064 104.071365 571.34064 105.11824Q571.34064 106.08699 571.6375 106.477615Q571.95 106.86824 572.40314 106.86824Q572.8719 106.86824 573.16876 106.477615Q573.48126 106.08699 573.48126 105.02449Q573.48126 104.05574 573.16876 103.665115Q572.85626 103.27449 572.40314 103.27449ZM572.40314 112.99324L577.8875 102.43074L578.8875 102.43074L573.4344 112.99324L572.40314 112.99324ZM576.7469 110.258865Q576.7469 109.18074 577.27814 108.446365Q577.825 107.696365 578.85626 107.696365Q579.79376 107.696365 580.41876 108.36824Q581.04376 109.040115 581.04376 110.33699Q581.04376 111.61824 580.41876 112.30574Q579.79376 112.99324 578.85626 112.99324Q577.95 112.99324 577.34064 112.321365Q576.7469 111.633865 576.7469 110.258865ZM578.8875 108.540115Q578.41876 108.540115 578.1219 108.946365Q577.825 109.33699 577.825 110.383865Q577.825 111.352615 578.1219 111.74324Q578.4344 112.133865 578.8875 112.133865Q579.35626 112.133865 579.65314 111.74324Q579.96564 111.352615 579.96564 110.290115Q579.96564 109.321365 579.65314 108.93074Q579.35626 108.540115 578.8875 108.540115Z" fill-rule="nonzero"/><path stroke="#757575" stroke-width="1.0" stroke-linecap="butt" d="M581.45 98.11824L455.76666 98.11824L396.48453 98.11824" fill-rule="nonzero"/><path fill="#9e9e9e" d="M398.48453 98.11824C398.48453 97.013664 397.5891 96.11824 396.48453 96.11824C395.37997 96.11824 394.48453 97.013664 394.48453 98.11824C394.48453 99.22281 395.37997 100.11824 396.48453 100.11824C397.5891 100.11824 398.48453 99.22281 398.48453 98.11824" fill-rule="nonzero"/><path fill="#1a1a1a" d="M490.4344 270.0224L494.27814 260.00677L495.7 260.00677L499.8094 270.0224L498.29376 270.0224L497.1219 266.99115L492.9344 266.99115L491.84064 270.0224L490.4344 270.0224ZM493.325 265.91302L496.71564 265.91302L495.66876 263.13177Q495.2 261.86615 494.96564 261.05365Q494.77814 262.0224 494.41876 262.9599L493.325 265.91302ZM500.3719 270.0224L500.3719 262.75677L501.48126 262.75677L501.48126 263.78802Q502.27814 262.60052 503.79376 262.60052Q504.45 262.60052 504.9969 262.8349Q505.54376 263.06927 505.8094 263.4599Q506.09064 263.8349 506.2 264.36615Q506.27814 264.7099 506.27814 265.55365L506.27814 270.0224L505.04376 270.0224L505.04376 265.60052Q505.04376 264.85052 504.90314 264.49115Q504.7625 264.11615 504.3875 263.8974Q504.02814 263.66302 503.52814 263.66302Q502.7469 263.66302 502.16876 264.16302Q501.60626 264.66302 501.60626 266.05365L501.60626 270.0224L500.3719 270.0224ZM511.0594 268.92865L511.23126 270.00677Q510.71564 270.11615 510.3094 270.11615Q509.6375 270.11615 509.2625 269.91302Q508.90314 269.69427 508.7469 269.35052Q508.60626 269.00677 508.60626 267.8974L508.60626 263.72552L507.7 263.72552L507.7 262.75677L508.60626 262.75677L508.60626 260.9599L509.825 260.22552L509.825 262.75677L511.0594 262.75677L511.0594 263.72552L509.825 263.72552L509.825 267.9599Q509.825 268.49115 509.8875 268.6474Q509.95 268.78802 510.09064 268.88177Q510.2469 268.97552 510.5125 268.97552Q510.73126 268.97552 511.0594 268.92865ZM512.3719 270.0224L512.3719 260.00677L513.60626 260.00677L513.60626 263.60052Q514.46564 262.60052 515.77814 262.60052Q516.59064 262.60052 517.1844 262.92865Q517.77814 263.24115 518.02814 263.80365Q518.29376 264.35052 518.29376 265.42865L518.29376 270.0224L517.0594 270.0224L517.0594 265.42865Q517.0594 264.49115 516.65314 264.0849Q516.2625 263.66302 515.52814 263.66302Q514.98126 263.66302 514.4969 263.94427Q514.0125 264.22552 513.8094 264.7099Q513.60626 265.19427 513.60626 266.05365L513.60626 270.0224L512.3719 270.0224ZM519.91876 266.3974Q519.91876 264.38177 521.04376 263.3974Q521.96564 262.60052 523.325 262.60052Q524.8094 262.60052 525.7625 263.5849Q526.71564 264.55365 526.71564 266.28802Q526.71564 267.69427 526.29376 268.50677Q525.8719 269.30365 525.0594 269.75677Q524.2625 270.19427 523.325 270.19427Q521.79376 270.19427 520.85626 269.2099Q519.91876 268.22552 519.91876 266.3974ZM521.1844 266.3974Q521.1844 267.78802 521.79376 268.49115Q522.40314 269.17865 523.325 269.17865Q524.23126 269.17865 524.84064 268.47552Q525.45 267.7724 525.45 266.35052Q525.45 265.00677 524.84064 264.31927Q524.23126 263.61615 523.325 263.61615Q522.40314 263.61615 521.79376 264.30365Q521.1844 264.99115 521.1844 266.3974ZM528.3719 270.0224L528.3719 262.75677L529.48126 262.75677L529.48126 263.78802Q530.27814 262.60052 531.79376 262.60052Q532.45 262.60052 532.9969 262.8349Q533.54376 263.06927 533.8094 263.4599Q534.09064 263.8349 534.2 264.36615Q534.27814 264.7099 534.27814 265.55365L534.27814 270.0224L533.04376 270.0224L533.04376 265.60052Q533.04376 264.85052 532.90314 264.49115Q532.7625 264.11615 532.3875 263.8974Q532.02814 263.66302 531.52814 263.66302Q530.7469 263.66302 530.16876 264.16302Q529.60626 264.66302 529.60626 266.05365L529.60626 270.0224L528.3719 270.0224ZM536.325 272.81927L536.1844 271.66302Q536.59064 271.7724 536.8875 271.7724Q537.29376 271.7724 537.54376 271.63177Q537.79376 271.50677 537.95 271.25677Q538.0594 271.06927 538.325 270.3349Q538.35626 270.24115 538.4344 270.03802L535.66876 262.75677L536.9969 262.75677L538.5125 266.9599Q538.8094 267.7724 539.04376 268.6474Q539.2469 267.80365 539.54376 266.99115L541.09064 262.75677L542.325 262.75677L539.5594 270.1474Q539.1219 271.3349 538.8719 271.78802Q538.54376 272.3974 538.1219 272.67865Q537.7 272.97552 537.10626 272.97552Q536.7625 272.97552 536.325 272.81927ZM547.52814 270.0224L547.52814 260.00677L550.98126 260.00677Q552.15314 260.00677 552.7625 260.1474Q553.6219 260.3349 554.23126 260.86615Q555.02814 261.53802 555.41876 262.5849Q555.8094 263.61615 555.8094 264.9599Q555.8094 266.10052 555.54376 266.99115Q555.27814 267.86615 554.85626 268.44427Q554.45 269.0224 553.95 269.35052Q553.45 269.67865 552.7469 269.85052Q552.0594 270.0224 551.15314 270.0224L547.52814 270.0224ZM548.85626 268.8349L550.9969 268.8349Q551.98126 268.8349 552.54376 268.66302Q553.1219 268.47552 553.45 268.13177Q553.91876 267.66302 554.1844 266.86615Q554.45 266.06927 554.45 264.92865Q554.45 263.36615 553.9344 262.5224Q553.41876 261.67865 552.6844 261.38177Q552.1375 261.17865 550.96564 261.17865L548.85626 261.17865L548.85626 268.8349ZM562.10626 269.13177Q561.4344 269.7099 560.79376 269.9599Q560.16876 270.19427 559.4344 270.19427Q558.2469 270.19427 557.59064 269.61615Q556.95 269.0224 556.95 268.10052Q556.95 267.56927 557.1844 267.13177Q557.4344 266.69427 557.825 266.42865Q558.23126 266.16302 558.71564 266.0224Q559.075 265.92865 559.8094 265.8349Q561.3094 265.66302 562.0125 265.41302Q562.0125 265.16302 562.0125 265.10052Q562.0125 264.3349 561.66876 264.03802Q561.2 263.61615 560.2625 263.61615Q559.40314 263.61615 558.98126 263.92865Q558.575 264.22552 558.3719 264.99115L557.16876 264.8349Q557.325 264.05365 557.7 263.5849Q558.09064 263.11615 558.79376 262.86615Q559.5125 262.60052 560.45 262.60052Q561.3719 262.60052 561.95 262.81927Q562.52814 263.03802 562.79376 263.36615Q563.075 263.69427 563.1844 264.2099Q563.2469 264.5224 563.2469 265.3349L563.2469 266.97552Q563.2469 268.69427 563.325 269.1474Q563.40314 269.60052 563.6375 270.0224L562.35626 270.0224Q562.16876 269.63177 562.10626 269.13177ZM562.0125 266.38177Q561.34064 266.6474 559.9969 266.85052Q559.2469 266.9599 558.91876 267.10052Q558.60626 267.22552 558.4344 267.49115Q558.2625 267.75677 558.2625 268.06927Q558.2625 268.56927 558.6375 268.8974Q559.0125 269.22552 559.73126 269.22552Q560.45 269.22552 560.9969 268.91302Q561.54376 268.60052 561.8094 268.05365Q562.0125 267.6474 562.0125 266.8349L562.0125 266.38177ZM567.3875 270.0224L564.6219 262.75677L565.9344 262.75677L567.48126 267.11615Q567.73126 267.81927 567.95 268.56927Q568.1219 267.99115 568.40314 267.19427L570.02814 262.75677L571.29376 262.75677L568.54376 270.0224L567.3875 270.0224ZM572.3875 261.41302L572.3875 260.00677L573.60626 260.00677L573.60626 261.41302L572.3875 261.41302ZM572.3875 270.0224L572.3875 262.75677L573.60626 262.75677L573.60626 270.0224L572.3875 270.0224ZM574.8875 267.85052L576.09064 267.66302Q576.2 268.3974 576.66876 268.78802Q577.1375 269.17865 577.98126 269.17865Q578.825 269.17865 579.23126 268.8349Q579.65314 268.49115 579.65314 268.0224Q579.65314 267.60052 579.27814 267.36615Q579.02814 267.19427 578.02814 266.94427Q576.66876 266.60052 576.1375 266.35052Q575.6219 266.10052 575.35626 265.66302Q575.09064 265.22552 575.09064 264.69427Q575.09064 264.2099 575.3094 263.80365Q575.52814 263.38177 575.91876 263.10052Q576.2 262.8974 576.6844 262.75677Q577.1844 262.60052 577.7625 262.60052Q578.60626 262.60052 579.2469 262.85052Q579.90314 263.0849 580.21564 263.50677Q580.52814 263.92865 580.6375 264.63177L579.4344 264.80365Q579.35626 264.24115 578.95 263.92865Q578.5594 263.61615 577.84064 263.61615Q576.9969 263.61615 576.6375 263.8974Q576.27814 264.16302 576.27814 264.55365Q576.27814 264.78802 576.41876 264.97552Q576.575 265.17865 576.90314 265.30365Q577.075 265.36615 577.98126 265.61615Q579.29376 265.97552 579.8094 266.19427Q580.325 266.41302 580.60626 266.8349Q580.90314 267.25677 580.90314 267.88177Q580.90314 268.50677 580.54376 269.05365Q580.2 269.5849 579.5125 269.8974Q578.84064 270.19427 577.98126 270.19427Q576.575 270.19427 575.825 269.60052Q575.09064 269.00677 574.8875 267.85052Z" fill-rule="nonzero"/><path fill="#9e9e9e" d="M546.66876 290.0224L545.4344 290.0224L545.4344 282.17865Q544.9969 282.60052 544.2625 283.03802Q543.54376 283.4599 542.98126 283.66302L542.98126 282.47552Q544.0125 281.99115 544.77814 281.30365Q545.5594 280.61615 545.8719 279.9599L546.66876 279.9599L546.66876 290.0224ZM550.21564 287.7099L551.40314 287.60052Q551.54376 288.42865 551.96564 288.80365Q552.40314 289.17865 553.0594 289.17865Q553.6219 289.17865 554.04376 288.92865Q554.48126 288.66302 554.7469 288.22552Q555.02814 287.78802 555.21564 287.05365Q555.40314 286.31927 555.40314 285.55365Q555.40314 285.47552 555.3875 285.30365Q555.02814 285.8974 554.3875 286.2724Q553.7469 286.63177 552.9969 286.63177Q551.7469 286.63177 550.8875 285.72552Q550.02814 284.81927 550.02814 283.35052Q550.02814 281.81927 550.91876 280.8974Q551.825 279.9599 553.1844 279.9599Q554.15314 279.9599 554.96564 280.49115Q555.77814 281.00677 556.2 281.99115Q556.6219 282.9599 556.6219 284.80365Q556.6219 286.72552 556.2 287.86615Q555.79376 289.00677 554.96564 289.60052Q554.1375 290.19427 553.02814 290.19427Q551.85626 290.19427 551.10626 289.53802Q550.3719 288.88177 550.21564 287.7099ZM555.2469 283.28802Q555.2469 282.22552 554.6844 281.60052Q554.1219 280.97552 553.34064 280.97552Q552.5125 280.97552 551.90314 281.6474Q551.29376 282.31927 551.29376 283.38177Q551.29376 284.3349 551.8719 284.94427Q552.45 285.53802 553.29376 285.53802Q554.15314 285.53802 554.7 284.94427Q555.2469 284.3349 555.2469 283.28802ZM558.7 290.0224L558.7 288.61615L560.09064 288.61615L560.09064 290.0224Q560.09064 290.78802 559.8094 291.25677Q559.54376 291.74115 558.95 292.00677L558.60626 291.47552Q558.9969 291.30365 559.1844 290.97552Q559.3719 290.6474 559.3875 290.0224L558.7 290.0224ZM562.10626 281.31927L562.10626 280.13177L568.60626 280.13177L568.60626 281.0849Q567.6375 282.10052 566.7 283.78802Q565.7625 285.47552 565.2469 287.2724Q564.8875 288.5224 564.77814 290.0224L563.5125 290.0224Q563.52814 288.8349 563.96564 287.16302Q564.41876 285.49115 565.2469 283.94427Q566.09064 282.38177 567.02814 281.31927L562.10626 281.31927ZM570.2625 282.41302Q570.2625 281.3349 570.79376 280.5849Q571.34064 279.8349 572.3719 279.8349Q573.3094 279.8349 573.91876 280.50677Q574.54376 281.17865 574.54376 282.47552Q574.54376 283.75677 573.91876 284.44427Q573.29376 285.13177 572.3875 285.13177Q571.48126 285.13177 570.8719 284.4599Q570.2625 283.7724 570.2625 282.41302ZM572.40314 280.67865Q571.95 280.67865 571.6375 281.0849Q571.34064 281.47552 571.34064 282.5224Q571.34064 283.49115 571.6375 283.88177Q571.95 284.2724 572.40314 284.2724Q572.8719 284.2724 573.16876 283.88177Q573.48126 283.49115 573.48126 282.42865Q573.48126 281.4599 573.16876 281.06927Q572.85626 280.67865 572.40314 280.67865ZM572.40314 290.3974L577.8875 279.8349L578.8875 279.8349L573.4344 290.3974L572.40314 290.3974ZM576.7469 287.66302Q576.7469 286.5849 577.27814 285.85052Q577.825 285.10052 578.85626 285.10052Q579.79376 285.10052 580.41876 285.7724Q581.04376 286.44427 581.04376 287.74115Q581.04376 289.0224 580.41876 289.7099Q579.79376 290.3974 578.85626 290.3974Q577.95 290.3974 577.34064 289.72552Q576.7469 289.03802 576.7469 287.66302ZM578.8875 285.94427Q578.41876 285.94427 578.1219 286.35052Q577.825 286.74115 577.825 287.78802Q577.825 288.75677 578.1219 289.1474Q578.4344 289.53802 578.8875 289.53802Q579.35626 289.53802 579.65314 289.1474Q579.96564 288.75677 579.96564 287.69427Q579.96564 286.72552 579.65314 286.3349Q579.35626 285.94427 578.8875 285.94427Z" fill-rule="nonzero"/><path stroke="#757575" stroke-width="1.0" stroke-linecap="butt" d="M581.45 275.5224L455.76666 275.5224L422.21945 275.5224" fill-rule="nonzero"/><path fill="#9e9e9e" d="M424.21945 275.5224C424.21945 274.41782 423.32404 273.5224 422.21945 273.5224C421.1149 273.5224 420.21945 274.41782 420.21945 275.5224C420.21945 276.62695 421.1149 277.5224 422.21945 277.5224C423.32404 277.5224 424.21945 276.62695 424.21945 275.5224" fill-rule="nonzero"/><path fill="#000000" d="M163.92188 27.596874Q163.92188 28.503124 163.625 29.33125Q163.34375 30.159374 162.79688 30.70625Q162.46875 31.05 162.0625 31.346874Q161.67188 31.64375 161.1875 31.83125Q160.70312 32.034374 160.125 32.159374Q159.5625 32.26875 158.85938 32.26875L157.14062 32.26875L157.14062 36.55L153.85938 36.55L153.85938 23.45625L158.9375 23.45625Q160.0625 23.45625 160.89062 23.675Q161.71875 23.878124 162.375 24.33125Q163.125 24.815624 163.51562 25.64375Q163.92188 26.45625 163.92188 27.596874ZM160.54688 27.675Q160.54688 27.1125 160.28125 26.721874Q160.03125 26.315624 159.65625 26.175Q159.1875 25.971874 158.76562 25.940624Q158.34375 25.909374 157.60938 25.909374L157.14062 25.909374L157.14062 29.83125L157.375 29.83125Q157.82812 29.83125 158.23438 29.83125Q158.65625 29.815624 158.96875 29.753124Q159.23438 29.70625 159.53125 29.58125Q159.82812 29.45625 159.98438 29.3Q160.3125 28.971874 160.42188 28.628124Q160.54688 28.26875 160.54688 27.675ZM174.84375 36.55L171.76562 36.55L171.76562 35.45625Q170.96875 36.128124 170.29688 36.471874Q169.64062 36.815624 168.70312 36.815624Q167.25 36.815624 166.42188 35.89375Q165.59375 34.971874 165.59375 33.096874L165.59375 26.675L168.6875 26.675L168.6875 31.58125Q168.6875 32.346874 168.71875 32.83125Q168.76562 33.3 168.92188 33.64375Q169.0625 33.940624 169.35938 34.1125Q169.65625 34.26875 170.17188 34.26875Q170.5 34.26875 170.9375 34.1125Q171.39062 33.940624 171.76562 33.675L171.76562 26.675L174.84375 26.675L174.84375 36.55ZM186.92188 36.55L183.82812 36.55L183.82812 31.659374Q183.82812 31.05 183.78125 30.45625Q183.73438 29.8625 183.60938 29.58125Q183.4375 29.253124 183.14062 29.1125Q182.84375 28.971874 182.34375 28.971874Q181.96875 28.971874 181.57812 29.1125Q181.1875 29.253124 180.75 29.55L180.75 36.55L177.67188 36.55L177.67188 26.675L180.75 26.675L180.75 27.76875Q181.51562 27.128124 182.21875 26.76875Q182.9375 26.409374 183.8125 26.409374Q185.32812 26.409374 186.125 27.3625Q186.92188 28.315624 186.92188 30.128124L186.92188 36.55ZM193.45312 36.7375Q191.57812 36.7375 190.71875 35.971874Q189.85938 35.190624 189.85938 33.440624L189.85938 28.83125L188.6875 28.83125L188.6875 26.675L189.85938 26.675L189.85938 23.8625L192.9375 23.8625L192.9375 26.675L195.90625 26.675L195.90625 28.83125L192.9375 28.83125L192.9375 32.315624Q192.9375 32.846874 192.9375 33.2375Q192.95312 33.6125 193.09375 33.925Q193.21875 34.221874 193.51562 34.409374Q193.82812 34.596874 194.4375 34.596874Q194.67188 34.596874 195.07812 34.4875Q195.48438 34.378124 195.64062 34.284374L195.90625 34.284374L195.90625 36.45625Q195.40625 36.596874 194.84375 36.659374Q194.28125 36.7375 193.45312 36.7375ZM206.15625 31.6125Q206.15625 34.05 204.8125 35.45625Q203.48438 36.8625 201.0625 36.8625Q198.64062 36.8625 197.29688 35.45625Q195.95312 34.05 195.95312 31.6125Q195.95312 29.159374 197.29688 27.76875Q198.64062 26.378124 201.0625 26.378124Q203.48438 26.378124 204.8125 27.784374Q206.15625 29.175 206.15625 31.6125ZM203.0 31.64375Q203.0 30.753124 202.84375 30.175Q202.70312 29.58125 202.45312 29.2375Q202.1875 28.8625 201.84375 28.721874Q201.5 28.58125 201.0625 28.58125Q200.64062 28.58125 200.29688 28.70625Q199.96875 28.83125 199.6875 29.190624Q199.42188 29.534374 199.26562 30.14375Q199.10938 30.7375 199.10938 31.64375Q199.10938 32.534374 199.25 33.096874Q199.40625 33.659374 199.65625 33.9875Q199.89062 34.33125 200.26562 34.4875Q200.64062 34.64375 201.07812 34.64375Q201.45312 34.64375 201.82812 34.4875Q202.21875 34.33125 202.4375 34.01875Q202.71875 33.64375 202.85938 33.1125Q203.0 32.58125 203.0 31.64375ZM210.6875 36.815624Q209.59375 36.815624 208.625 36.58125Q207.65625 36.346874 207.01562 36.034374L207.01562 33.425L207.28125 33.425Q207.5 33.596874 207.78125 33.8Q208.0625 34.003124 208.5625 34.221874Q208.98438 34.425 209.51562 34.565624Q210.0625 34.70625 210.70312 34.70625Q211.35938 34.70625 211.84375 34.51875Q212.34375 34.315624 212.34375 33.8625Q212.34375 33.51875 212.10938 33.346874Q211.89062 33.175 211.23438 33.01875Q210.875 32.925 210.34375 32.83125Q209.8125 32.721874 209.39062 32.596874Q208.23438 32.2375 207.64062 31.534374Q207.0625 30.815624 207.0625 29.675Q207.0625 29.003124 207.35938 28.425Q207.67188 27.846874 208.26562 27.378124Q208.84375 26.940624 209.70312 26.675Q210.57812 26.409374 211.67188 26.409374Q212.70312 26.409374 213.57812 26.6125Q214.45312 26.815624 215.04688 27.1125L215.04688 29.6125L214.79688 29.6125Q214.64062 29.4875 214.29688 29.284374Q213.95312 29.065624 213.625 28.925Q213.23438 28.7375 212.75 28.628124Q212.28125 28.51875 211.78125 28.51875Q211.10938 28.51875 210.64062 28.753124Q210.1875 28.971874 210.1875 29.346874Q210.1875 29.690624 210.42188 29.878124Q210.65625 30.065624 211.40625 30.253124Q211.8125 30.346874 212.32812 30.440624Q212.84375 30.534374 213.3125 30.690624Q214.375 31.034374 214.92188 31.70625Q215.46875 32.3625 215.46875 33.471874Q215.46875 34.159374 215.14062 34.784374Q214.82812 35.409374 214.21875 35.846874Q213.59375 36.315624 212.73438 36.565624Q211.875 36.815624 210.6875 36.815624ZM225.45312 36.7375Q223.57812 36.7375 222.71875 35.971874Q221.85938 35.190624 221.85938 33.440624L221.85938 28.83125L220.6875 28.83125L220.6875 26.675L221.85938 26.675L221.85938 23.8625L224.9375 23.8625L224.9375 26.675L227.90625 26.675L227.90625 28.83125L224.9375 28.83125L224.9375 32.315624Q224.9375 32.846874 224.9375 33.2375Q224.95312 33.6125 225.09375 33.925Q225.21875 34.221874 225.51562 34.409374Q225.82812 34.596874 226.4375 34.596874Q226.67188 34.596874 227.07812 34.4875Q227.48438 34.378124 227.64062 34.284374L227.90625 34.284374L227.90625 36.45625Q227.40625 36.596874 226.84375 36.659374Q226.28125 36.7375 225.45312 36.7375ZM238.15625 31.6125Q238.15625 34.05 236.8125 35.45625Q235.48438 36.8625 233.0625 36.8625Q230.64062 36.8625 229.29688 35.45625Q227.95312 34.05 227.95312 31.6125Q227.95312 29.159374 229.29688 27.76875Q230.64062 26.378124 233.0625 26.378124Q235.48438 26.378124 236.8125 27.784374Q238.15625 29.175 238.15625 31.6125ZM235.0 31.64375Q235.0 30.753124 234.84375 30.175Q234.70312 29.58125 234.45312 29.2375Q234.1875 28.8625 233.84375 28.721874Q233.5 28.58125 233.0625 28.58125Q232.64062 28.58125 232.29688 28.70625Q231.96875 28.83125 231.6875 29.190624Q231.42188 29.534374 231.26562 30.14375Q231.10938 30.7375 231.10938 31.64375Q231.10938 32.534374 231.25 33.096874Q231.40625 33.659374 231.65625 33.9875Q231.89062 34.33125 232.26562 34.4875Q232.64062 34.64375 233.07812 34.64375Q233.45312 34.64375 233.82812 34.4875Q234.21875 34.33125 234.4375 34.01875Q234.71875 33.64375 234.85938 33.1125Q235.0 32.58125 235.0 31.64375ZM243.45312 36.7375Q241.57812 36.7375 240.71875 35.971874Q239.85938 35.190624 239.85938 33.440624L239.85938 28.83125L238.6875 28.83125L238.6875 26.675L239.85938 26.675L239.85938 23.8625L242.9375 23.8625L242.9375 26.675L245.90625 26.675L245.90625 28.83125L242.9375 28.83125L242.9375 32.315624Q242.9375 32.846874 242.9375 33.2375Q242.95312 33.6125 243.09375 33.925Q243.21875 34.221874 243.51562 34.409374Q243.82812 34.596874 244.4375 34.596874Q244.67188 34.596874 245.07812 34.4875Q245.48438 34.378124 245.64062 34.284374L245.90625 34.284374L245.90625 36.45625Q245.40625 36.596874 244.84375 36.659374Q244.28125 36.7375 243.45312 36.7375ZM252.125 33.971874L252.125 31.925Q251.34375 32.003124 250.85938 32.065624Q250.375 32.1125 249.90625 32.284374Q249.5 32.425 249.26562 32.70625Q249.04688 32.9875 249.04688 33.471874Q249.04688 34.159374 249.42188 34.425Q249.79688 34.675 250.53125 34.675Q250.9375 34.675 251.35938 34.503124Q251.78125 34.315624 252.125 33.971874ZM252.125 35.503124Q251.79688 35.76875 251.54688 35.9875Q251.29688 36.190624 250.875 36.39375Q250.46875 36.596874 250.07812 36.70625Q249.6875 36.815624 248.98438 36.815624Q247.67188 36.815624 246.79688 35.940624Q245.9375 35.05 245.9375 33.721874Q245.9375 32.628124 246.375 31.95625Q246.8125 31.26875 247.64062 30.878124Q248.48438 30.471874 249.64062 30.315624Q250.79688 30.14375 252.14062 30.065624L252.14062 30.003124Q252.14062 29.190624 251.53125 28.878124Q250.9375 28.565624 249.73438 28.565624Q249.1875 28.565624 248.45312 28.76875Q247.71875 28.971874 247.03125 29.26875L246.76562 29.26875L246.76562 26.89375Q247.21875 26.753124 248.23438 26.58125Q249.26562 26.39375 250.29688 26.39375Q252.84375 26.39375 254.0 27.253124Q255.17188 28.096874 255.17188 29.83125L255.17188 36.55L252.125 36.55L252.125 35.503124ZM260.75 36.55L257.67188 36.55L257.67188 22.878124L260.75 22.878124L260.75 36.55ZM267.73438 36.815624Q264.9375 36.815624 263.4375 35.4875Q261.95312 34.14375 261.95312 31.675Q261.95312 29.253124 263.34375 27.815624Q264.73438 26.378124 267.23438 26.378124Q269.5 26.378124 270.64062 27.596874Q271.78125 28.815624 271.78125 31.096874L271.78125 32.20625L265.04688 32.20625Q265.09375 32.878124 265.32812 33.346874Q265.57812 33.8 265.98438 34.08125Q266.375 34.346874 266.90625 34.471874Q267.4375 34.596874 268.0625 34.596874Q268.59375 34.596874 269.10938 34.471874Q269.625 34.346874 270.0625 34.159374Q270.4375 33.9875 270.75 33.8Q271.07812 33.6125 271.28125 33.45625L271.60938 33.45625L271.60938 36.003124Q271.23438 36.14375 270.92188 36.26875Q270.60938 36.39375 270.0625 36.534374Q269.5625 36.659374 269.03125 36.7375Q268.5 36.815624 267.73438 36.815624ZM268.75 30.346874Q268.71875 29.3625 268.29688 28.8625Q267.875 28.346874 267.0 28.346874Q266.09375 28.346874 265.59375 28.89375Q265.09375 29.425 265.03125 30.346874L268.75 30.346874ZM276.6875 36.815624Q275.59375 36.815624 274.625 36.58125Q273.65625 36.346874 273.01562 36.034374L273.01562 33.425L273.28125 33.425Q273.5 33.596874 273.78125 33.8Q274.0625 34.003124 274.5625 34.221874Q274.98438 34.425 275.51562 34.565624Q276.0625 34.70625 276.70312 34.70625Q277.35938 34.70625 277.84375 34.51875Q278.34375 34.315624 278.34375 33.8625Q278.34375 33.51875 278.10938 33.346874Q277.89062 33.175 277.23438 33.01875Q276.875 32.925 276.34375 32.83125Q275.8125 32.721874 275.39062 32.596874Q274.23438 32.2375 273.64062 31.534374Q273.0625 30.815624 273.0625 29.675Q273.0625 29.003124 273.35938 28.425Q273.67188 27.846874 274.26562 27.378124Q274.84375 26.940624 275.70312 26.675Q276.57812 26.409374 277.67188 26.409374Q278.70312 26.409374 279.57812 26.6125Q280.45312 26.815624 281.04688 27.1125L281.04688 29.6125L280.79688 29.6125Q280.64062 29.4875 280.29688 29.284374Q279.95312 29.065624 279.625 28.925Q279.23438 28.7375 278.75 28.628124Q278.28125 28.51875 277.78125 28.51875Q277.10938 28.51875 276.64062 28.753124Q276.1875 28.971874 276.1875 29.346874Q276.1875 29.690624 276.42188 29.878124Q276.65625 30.065624 277.40625 30.253124Q277.8125 30.346874 278.32812 30.440624Q278.84375 30.534374 279.3125 30.690624Q280.375 31.034374 280.92188 31.70625Q281.46875 32.3625 281.46875 33.471874Q281.46875 34.159374 281.14062 34.784374Q280.82812 35.409374 280.21875 35.846874Q279.59375 36.315624 278.73438 36.565624Q277.875 36.815624 276.6875 36.815624ZM296.59375 36.55L287.85938 36.55L287.85938 23.45625L291.14062 23.45625L291.14062 34.05L296.59375 34.05L296.59375 36.55ZM303.125 33.971874L303.125 31.925Q302.34375 32.003124 301.85938 32.065624Q301.375 32.1125 300.90625 32.284374Q300.5 32.425 300.26562 32.70625Q300.04688 32.9875 300.04688 33.471874Q300.04688 34.159374 300.42188 34.425Q300.79688 34.675 301.53125 34.675Q301.9375 34.675 302.35938 34.503124Q302.78125 34.315624 303.125 33.971874ZM303.125 35.503124Q302.79688 35.76875 302.54688 35.9875Q302.29688 36.190624 301.875 36.39375Q301.46875 36.596874 301.07812 36.70625Q300.6875 36.815624 299.98438 36.815624Q298.67188 36.815624 297.79688 35.940624Q296.9375 35.05 296.9375 33.721874Q296.9375 32.628124 297.375 31.95625Q297.8125 31.26875 298.64062 30.878124Q299.48438 30.471874 300.64062 30.315624Q301.79688 30.14375 303.14062 30.065624L303.14062 30.003124Q303.14062 29.190624 302.53125 28.878124Q301.9375 28.565624 300.73438 28.565624Q300.1875 28.565624 299.45312 28.76875Q298.71875 28.971874 298.03125 29.26875L297.76562 29.26875L297.76562 26.89375Q298.21875 26.753124 299.23438 26.58125Q300.26562 26.39375 301.29688 26.39375Q303.84375 26.39375 305.0 27.253124Q306.17188 28.096874 306.17188 29.83125L306.17188 36.55L303.125 36.55L303.125 35.503124ZM318.5625 36.55L314.90625 36.55L312.23438 32.253124L311.75 32.89375L311.75 36.55L308.67188 36.55L308.67188 22.878124L311.75 22.878124L311.75 30.534374L314.67188 26.675L318.29688 26.675L314.84375 30.940624L318.5625 36.55ZM324.73438 36.815624Q321.9375 36.815624 320.4375 35.4875Q318.95312 34.14375 318.95312 31.675Q318.95312 29.253124 320.34375 27.815624Q321.73438 26.378124 324.23438 26.378124Q326.5 26.378124 327.64062 27.596874Q328.78125 28.815624 328.78125 31.096874L328.78125 32.20625L322.04688 32.20625Q322.09375 32.878124 322.32812 33.346874Q322.57812 33.8 322.98438 34.08125Q323.375 34.346874 323.90625 34.471874Q324.4375 34.596874 325.0625 34.596874Q325.59375 34.596874 326.10938 34.471874Q326.625 34.346874 327.0625 34.159374Q327.4375 33.9875 327.75 33.8Q328.07812 33.6125 328.28125 33.45625L328.60938 33.45625L328.60938 36.003124Q328.23438 36.14375 327.92188 36.26875Q327.60938 36.39375 327.0625 36.534374Q326.5625 36.659374 326.03125 36.7375Q325.5 36.815624 324.73438 36.815624ZM325.75 30.346874Q325.71875 29.3625 325.29688 28.8625Q324.875 28.346874 324.0 28.346874Q323.09375 28.346874 322.59375 28.89375Q322.09375 29.425 322.03125 30.346874L325.75 30.346874ZM337.3125 29.58125L337.04688 29.58125Q336.875 29.534374 336.53125 29.503124Q336.20312 29.471874 335.79688 29.471874Q335.3125 29.471874 334.78125 29.6125Q334.25 29.753124 333.75 29.940624L333.75 36.55L330.67188 36.55L330.67188 26.675L333.75 26.675L333.75 28.096874Q333.96875 27.89375 334.34375 27.6125Q334.71875 27.315624 335.01562 27.14375Q335.35938 26.940624 335.79688 26.8Q336.23438 26.64375 336.64062 26.64375Q336.78125 26.64375 336.96875 26.659374Q337.15625 26.659374 337.3125 26.675L337.3125 29.58125ZM341.6875 36.815624Q340.59375 36.815624 339.625 36.58125Q338.65625 36.346874 338.01562 36.034374L338.01562 33.425L338.28125 33.425Q338.5 33.596874 338.78125 33.8Q339.0625 34.003124 339.5625 34.221874Q339.98438 34.425 340.51562 34.565624Q341.0625 34.70625 341.70312 34.70625Q342.35938 34.70625 342.84375 34.51875Q343.34375 34.315624 343.34375 33.8625Q343.34375 33.51875 343.10938 33.346874Q342.89062 33.175 342.23438 33.01875Q341.875 32.925 341.34375 32.83125Q340.8125 32.721874 340.39062 32.596874Q339.23438 32.2375 338.64062 31.534374Q338.0625 30.815624 338.0625 29.675Q338.0625 29.003124 338.35938 28.425Q338.67188 27.846874 339.26562 27.378124Q339.84375 26.940624 340.70312 26.675Q341.57812 26.409374 342.67188 26.409374Q343.70312 26.409374 344.57812 26.6125Q345.45312 26.815624 346.04688 27.1125L346.04688 29.6125L345.79688 29.6125Q345.64062 29.4875 345.29688 29.284374Q344.95312 29.065624 344.625 28.925Q344.23438 28.7375 343.75 28.628124Q343.28125 28.51875 342.78125 28.51875Q342.10938 28.51875 341.64062 28.753124Q341.1875 28.971874 341.1875 29.346874Q341.1875 29.690624 341.42188 29.878124Q341.65625 30.065624 342.40625 30.253124Q342.8125 30.346874 343.32812 30.440624Q343.84375 30.534374 344.3125 30.690624Q345.375 31.034374 345.92188 31.70625Q346.46875 32.3625 346.46875 33.471874Q346.46875 34.159374 346.14062 34.784374Q345.82812 35.409374 345.21875 35.846874Q344.59375 36.315624 343.73438 36.565624Q342.875 36.815624 341.6875 36.815624ZM362.4375 36.55L352.82812 36.55L352.82812 34.409374Q354.04688 33.440624 355.01562 32.58125Q355.98438 31.721874 356.73438 30.95625Q357.6875 29.940624 358.10938 29.175Q358.54688 28.409374 358.54688 27.596874Q358.54688 26.690624 358.0 26.20625Q357.45312 25.70625 356.48438 25.70625Q355.98438 25.70625 355.53125 25.83125Q355.09375 25.95625 354.64062 26.159374Q354.1875 26.346874 353.875 26.565624Q353.5625 26.76875 353.40625 26.878124L353.14062 26.878124L353.14062 24.01875Q353.70312 23.76875 354.875 23.4875Q356.04688 23.20625 357.14062 23.20625Q359.46875 23.20625 360.67188 24.253124Q361.875 25.284374 361.875 27.159374Q361.875 28.315624 361.32812 29.440624Q360.78125 30.55 359.51562 31.815624Q358.71875 32.596874 357.96875 33.221874Q357.23438 33.83125 356.89062 34.08125L362.4375 34.08125L362.4375 36.55ZM373.28125 30.003124Q373.28125 31.690624 373.0 32.971874Q372.73438 34.253124 372.14062 35.096874Q371.53125 35.95625 370.57812 36.39375Q369.625 36.815624 368.23438 36.815624Q366.84375 36.815624 365.89062 36.39375Q364.9375 35.95625 364.32812 35.08125Q363.73438 34.221874 363.45312 32.95625Q363.1875 31.690624 363.1875 30.003124Q363.1875 28.26875 363.45312 27.05Q363.71875 25.815624 364.34375 24.925Q364.96875 24.05 365.92188 23.628124Q366.89062 23.20625 368.23438 23.20625Q369.64062 23.20625 370.57812 23.64375Q371.53125 24.08125 372.14062 24.971874Q372.73438 25.83125 373.0 27.096874Q373.28125 28.3625 373.28125 30.003124ZM369.98438 30.003124Q369.98438 27.58125 369.57812 26.596874Q369.1875 25.6125 368.23438 25.6125Q367.29688 25.6125 366.89062 26.596874Q366.48438 27.58125 366.48438 30.01875Q366.48438 32.409374 366.89062 33.409374Q367.29688 34.409374 368.23438 34.409374Q369.17188 34.409374 369.57812 33.409374Q369.98438 32.409374 369.98438 30.003124ZM383.85938 36.55L375.21875 36.55L375.21875 34.26875L377.96875 34.26875L377.96875 27.346874L375.21875 27.346874L375.21875 25.20625Q375.82812 25.20625 376.42188 25.128124Q377.01562 25.05 377.375 24.878124Q377.79688 24.659374 378.03125 24.315624Q378.26562 23.95625 378.29688 23.425L381.17188 23.425L381.17188 34.26875L383.85938 34.26875L383.85938 36.55ZM395.09375 29.26875Q395.09375 30.940624 394.70312 32.33125Q394.32812 33.721874 393.51562 34.70625Q392.67188 35.721874 391.40625 36.26875Q390.15625 36.8 388.34375 36.8Q387.71875 36.8 387.04688 36.721874Q386.39062 36.64375 386.17188 36.58125L386.17188 34.003124L386.42188 34.003124Q386.67188 34.128124 387.125 34.26875Q387.57812 34.409374 388.375 34.409374Q389.01562 34.409374 389.60938 34.2375Q390.21875 34.065624 390.64062 33.70625Q391.09375 33.315624 391.39062 32.7375Q391.6875 32.159374 391.79688 31.284374Q391.09375 31.721874 390.48438 31.95625Q389.89062 32.190624 388.98438 32.190624Q388.3125 32.190624 387.6875 32.01875Q387.07812 31.83125 386.5625 31.45625Q385.89062 30.925 385.48438 30.096874Q385.09375 29.26875 385.09375 27.940624Q385.09375 26.925 385.4375 26.065624Q385.79688 25.190624 386.4375 24.55Q387.0625 23.925 387.98438 23.565624Q388.90625 23.20625 390.04688 23.20625Q391.1875 23.20625 392.07812 23.534374Q392.96875 23.846874 393.59375 24.503124Q394.32812 25.253124 394.70312 26.425Q395.09375 27.596874 395.09375 29.26875ZM391.84375 28.784374Q391.84375 27.721874 391.65625 27.034374Q391.48438 26.33125 391.15625 25.95625Q390.9375 25.675 390.64062 25.55Q390.35938 25.425 390.03125 25.425Q389.73438 25.425 389.45312 25.55Q389.1875 25.659374 388.9375 25.95625Q388.70312 26.20625 388.54688 26.70625Q388.39062 27.190624 388.39062 27.784374Q388.39062 28.409374 388.54688 28.815624Q388.70312 29.221874 388.98438 29.471874Q389.26562 29.70625 389.625 29.815624Q390.0 29.909374 390.4375 29.909374Q390.79688 29.909374 391.1875 29.815624Q391.57812 29.70625 391.82812 29.596874Q391.82812 29.503124 391.82812 29.33125Q391.84375 29.14375 391.84375 28.784374ZM402.29688 32.003124L396.46875 32.003124L396.46875 29.55L402.29688 29.55L402.29688 32.003124ZM414.4375 36.55L404.82812 36.55L404.82812 34.409374Q406.04688 33.440624 407.01562 32.58125Q407.98438 31.721874 408.73438 30.95625Q409.6875 29.940624 410.10938 29.175Q410.54688 28.409374 410.54688 27.596874Q410.54688 26.690624 410.0 26.20625Q409.45312 25.70625 408.48438 25.70625Q407.98438 25.70625 407.53125 25.83125Q407.09375 25.95625 406.64062 26.159374Q406.1875 26.346874 405.875 26.565624Q405.5625 26.76875 405.40625 26.878124L405.14062 26.878124L405.14062 24.01875Q405.70312 23.76875 406.875 23.4875Q408.04688 23.20625 409.14062 23.20625Q411.46875 23.20625 412.67188 24.253124Q413.875 25.284374 413.875 27.159374Q413.875 28.315624 413.32812 29.440624Q412.78125 30.55 411.51562 31.815624Q410.71875 32.596874 409.96875 33.221874Q409.23438 33.83125 408.89062 34.08125L414.4375 34.08125L414.4375 36.55ZM425.28125 30.003124Q425.28125 31.690624 425.0 32.971874Q424.73438 34.253124 424.14062 35.096874Q423.53125 35.95625 422.57812 36.39375Q421.625 36.815624 420.23438 36.815624Q418.84375 36.815624 417.89062 36.39375Q416.9375 35.95625 416.32812 35.08125Q415.73438 34.221874 415.45312 32.95625Q415.1875 31.690624 415.1875 30.003124Q415.1875 28.26875 415.45312 27.05Q415.71875 25.815624 416.34375 24.925Q416.96875 24.05 417.92188 23.628124Q418.89062 23.20625 420.23438 23.20625Q421.64062 23.20625 422.57812 23.64375Q423.53125 24.08125 424.14062 24.971874Q424.73438 25.83125 425.0 27.096874Q425.28125 28.3625 425.28125 30.003124ZM421.98438 30.003124Q421.98438 27.58125 421.57812 26.596874Q421.1875 25.6125 420.23438 25.6125Q419.29688 25.6125 418.89062 26.596874Q418.48438 27.58125 418.48438 30.01875Q418.48438 32.409374 418.89062 33.409374Q419.29688 34.409374 420.23438 34.409374Q421.17188 34.409374 421.57812 33.409374Q421.98438 32.409374 421.98438 30.003124ZM436.4375 36.55L426.82812 36.55L426.82812 34.409374Q428.04688 33.440624 429.01562 32.58125Q429.98438 31.721874 430.73438 30.95625Q431.6875 29.940624 432.10938 29.175Q432.54688 28.409374 432.54688 27.596874Q432.54688 26.690624 432.0 26.20625Q431.45312 25.70625 430.48438 25.70625Q429.98438 25.70625 429.53125 25.83125Q429.09375 25.95625 428.64062 26.159374Q428.1875 26.346874 427.875 26.565624Q427.5625 26.76875 427.40625 26.878124L427.14062 26.878124L427.14062 24.01875Q427.70312 23.76875 428.875 23.4875Q430.04688 23.20625 431.14062 23.20625Q433.46875 23.20625 434.67188 24.253124Q435.875 25.284374 435.875 27.159374Q435.875 28.315624 435.32812 29.440624Q434.78125 30.55 433.51562 31.815624Q432.71875 32.596874 431.96875 33.221874Q431.23438 33.83125 430.89062 34.08125L436.4375 34.08125L436.4375 36.55ZM447.28125 30.003124Q447.28125 31.690624 447.0 32.971874Q446.73438 34.253124 446.14062 35.096874Q445.53125 35.95625 444.57812 36.39375Q443.625 36.815624 442.23438 36.815624Q440.84375 36.815624 439.89062 36.39375Q438.9375 35.95625 438.32812 35.08125Q437.73438 34.221874 437.45312 32.95625Q437.1875 31.690624 437.1875 30.003124Q437.1875 28.26875 437.45312 27.05Q437.71875 25.815624 438.34375 24.925Q438.96875 24.05 439.92188 23.628124Q440.89062 23.20625 442.23438 23.20625Q443.64062 23.20625 444.57812 23.64375Q445.53125 24.08125 446.14062 24.971874Q446.73438 25.83125 447.0 27.096874Q447.28125 28.3625 447.28125 30.003124ZM443.98438 30.003124Q443.98438 27.58125 443.57812 26.596874Q443.1875 25.6125 442.23438 25.6125Q441.29688 25.6125 440.89062 26.596874Q440.48438 27.58125 440.48438 30.01875Q440.48438 32.409374 440.89062 33.409374Q441.29688 34.409374 442.23438 34.409374Q443.17188 34.409374 443.57812 33.409374Q443.98438 32.409374 443.98438 30.003124Z" fill-rule="nonzero"/></svg>